# xmcd
#
# Track frame offsets: 
#        150
#        30841
#        50872
#        80135
#        103587
#        125812
#        152978
#
# Disc length: 2614 seconds
#
# Revision: 0
# Processed by: cddbd v1.5.2PL0 Copyright (c) Steve Scherf et al.
# Submitted via: ExactAudioCopy v1.3
#
DISCID=5c0a3407
DTITLE=Kai strauss and The Electric All Stars - Live in Concert [disc 2]
DYEAR=2019
DGENRE=Electric Blues
TTITLE0=The Blues Is Handmade
TTITLE1=This Game Ain't Worth Playing No More
TTITLE2=Let Me Love You Baby
TTITLE3=Put That Bottle Down
TTITLE4=Got To Be Some Changes Made
TTITLE5=I Ain't Buying It
TTITLE6=Shades Of Earl (Tribute To Ronnie Earl And Earl Hooker)
EXTD=
EXTT0=
EXTT1=
EXTT2=
EXTT3=
EXTT4=
EXTT5=
EXTT6=
PLAYORDER=
